<svg xmlns="http://www.w3.org/2000/svg" xmlns:xlink="http://www.w3.org/1999/xlink" version="1.1" id="Layer_1" x="0px" y="0px" viewBox="254 -254 708 708" style="enable-background:new 254 -254 708 708;" xml:space="preserve">
<style type="text/css">
	.st0{fill:none;stroke:url(#SVGID_1_);stroke-width:1.0842;stroke-miterlimit:10;}
	.st1{fill:#FFFFFF;}
	.st2{fill:#EDF0F7;}
	.st3{fill:#4185F4;}
	.st4{fill:#6F7989;stroke:#FFFFFF;stroke-width:11;stroke-miterlimit:10;}
	.st5{fill:#6F7989;stroke:#FFFFFF;stroke-width:8.2582;stroke-miterlimit:10;}
	.st6{fill:#6F7989;stroke:#FFFFFF;stroke-width:6;stroke-miterlimit:10;}
	.st7{fill:#ECEFF7;}
	.st8{fill:#FFFFFF;stroke:#6F7989;stroke-width:4.0082;stroke-miterlimit:10;}
	.st9{fill:#6F7989;}
	.st10{fill:#818FA1;}
	.st11{fill:#E4EAEF;}
	.st12{fill:#BAC9D1;}
	.st13{fill:#DDE3ED;}
	.st14{fill:#B577ED;}
	.st15{fill:#F4EA78;}
	.st16{fill:#FFFFFF;stroke:#DDE3ED;stroke-width:2.8496;stroke-miterlimit:10;}
	.st17{fill:#FFFFFF;stroke:#DDE3ED;stroke-width:3.4905;stroke-miterlimit:10;}
	.st18{fill:#FFFFFF;stroke:#43EBD4;stroke-width:4.1456;stroke-miterlimit:10;}
	.st19{fill:#DDE2EC;}
</style>
<linearGradient id="SVGID_1_" gradientUnits="userSpaceOnUse" x1="897.2174" y1="-154.526" x2="1546.7079" y2="-154.526" gradientTransform="matrix(-0.7071 -0.7071 -0.7071 0.7071 1363.5844 1073.8151)">
	<stop offset="0" style="stop-color:#D2D5E4"/>
	<stop offset="0.5269" style="stop-color:#FFFFFF"/>
	<stop offset="1" style="stop-color:#D2D5E4"/>
</linearGradient>
<circle class="st0" cx="608.8" cy="100.5" r="324.2"/>
<rect x="347" y="-82" class="st1" width="464" height="240"/>
<path class="st2" d="M680,302c8.8,0,16,7.2,16,16c-0.1,8.8-7.2,15.9-16,16H504c-8.8,0-16-7.2-16-16c0.1-8.8,7.2-15.9,16-16H680z"/>
<path class="st2" d="M821-101v32H357v-32c0.1-17.7,14.3-31.9,32-32h400C806.7-133,821-118.7,821-101L821-101z"/>
<path class="st3" d="M636.5-12.2"/>
<g>
	<path class="st2" d="M656,303H528l8-64h112L656,303z"/>
	<path class="st2" d="M824,175v32c-0.1,17.7-14.3,31.9-32,32H392c-17.7-0.1-31.9-14.3-32-32v-32H824z"/>
	<path class="st4" d="M792-137H392c-22.1,0-40,17.9-40,40v304c0,22.1,17.9,40,40,40h134.9l-6,48H504c-13.3,0-24,10.7-24,24   s10.7,24,24,24h176c13.3,0,24-10.7,24-24s-10.7-24-24-24h-16.9l-6-48H792c22.1,0,40-17.9,40-40V-97C832-119.1,814.1-137,792-137   L792-137z M392-121h400c13.3,0,24,10.7,24,24v24H368v-24C368-110.3,378.7-121,392-121L392-121z M816-57v224H368V-57H816z M688,319   c0,4.4-3.6,8-8,8H504c-4.4,0-8-3.6-8-8s3.6-8,8-8h176C684.4,311,688,314.6,688,319L688,319z M646.9,295H537.1l6-48H641L646.9,295z    M792,231H392c-13.3,0-24-10.7-24-24v-24h448v24C816,220.3,805.3,231,792,231L792,231z"/>
	<g>
		<path class="st5" d="M551.7,124.2l35.8,22.4c2.7,1.7,6.2,1.7,8.9,0l35.8-22.4c22.3-13.8,35.8-38.2,35.7-64.5V-4    c0-4.6-3.7-8.4-8.4-8.4l-17-0.1c-10,0-19.8-2.5-28.6-7.4c-5.7-3.9-10.7-8.6-14.9-14.1l-0.8-1c-1.6-1.8-4-2.8-6.4-2.8    c-2.4,0-4.7,1-6.4,2.8l-0.8,1c-4.2,5.5-9.3,10.2-15,14.1c-8.7,4.8-18.5,7.4-28.5,7.4l-16.9,0.1c-4.6,0-8.4,3.8-8.4,8.4v63.8    C515.9,86,529.4,110.4,551.7,124.2L551.7,124.2z M529,1l9-0.1c13.7,0,27.1-3.4,39-10.1c5.6-3.3,10.6-7.5,14.9-12.3    c4.3,4.8,9.3,9,14.8,12.3C618.6-2.5,632.1,1,645.8,0.9l9.1,0.1v59c0.1,21.7-11.1,41.9-29.6,53.4L592,134.2l-33.4-20.9    C540.2,101.9,529,81.7,529,60V1z"/>
		<path class="st3" d="M655.3,0v59.8c0,21.8-11.3,42.2-29.8,53.7l-33.6,21l-33.6-21c-18.5-11.6-29.8-31.9-29.8-53.7V0l15.9-0.2    c10.7,0,21.2-2.7,30.6-7.9c6.5-4.3,12.2-9.7,17-15.9c4.7,6.2,10.5,11.5,17,15.9c9.3,5.2,19.9,8,30.6,7.9L655.3,0z"/>
		<path class="st1" d="M591.9,56.3c-4.5,0-8.2,3.7-8.2,8.2c0,2.2,0.9,4.4,2.6,6v7.4c0,3.1,2.5,5.6,5.6,5.6c3.1,0,5.6-2.5,5.6-5.6    v-7.4c1.6-1.5,2.6-3.7,2.6-6C600.1,59.9,596.4,56.3,591.9,56.3z M594.8,67.5c-0.8,0.7-1.2,1.8-1.2,2.8v7.4c0,0.9-0.7,1.7-1.7,1.7    c-0.9,0-1.7-0.7-1.7-1.7v-7.4c0-1.1-0.4-2.1-1.2-2.8c-0.9-0.8-1.3-1.9-1.3-3.1c0-2.3,1.9-4.2,4.2-4.2s4.2,1.9,4.2,4.2    C596.1,65.6,595.6,66.7,594.8,67.5z"/>
		<path class="st1" d="M615.9,45.5h-6V29.7c0-10-8.1-18.1-18.1-18.1s-18.1,8.1-18.1,18.1v15.8h-6c-3.3,0-6,2.7-6,6v36.8    c0,3.3,2.7,6,6,6h48.1c3.3,0,6-2.7,6-6V51.5C621.8,48.2,619.2,45.5,615.9,45.5z M577.8,29.7c0-7.8,6.3-14.1,14.1-14.1    c7.8,0,14.1,6.3,14.1,14.1v15.8h-28.2V29.7z M617.9,88.3c0,1.1-0.9,2-2,2h-48.1c-1.1,0-2-0.9-2-2V51.5c0-1.1,0.9-2,2-2h48.1    c1.1,0,2,0.9,2,2V88.3L617.9,88.3z"/>
	</g>
	<rect x="816" y="-23.2" class="st1" width="16" height="14.3"/>
	<rect x="816" y="-42" class="st1" width="16" height="10.1"/>
	<circle class="st1" cx="591.9" cy="207" r="9"/>
	<rect x="352" y="107" class="st1" width="16" height="19"/>
	<rect x="352" y="83" class="st1" width="16" height="9.5"/>
</g>
<g>
	<path class="st6" d="M745.8,340h139.5c6.9,0,12.6-5.7,12.6-12.6V68.1c0-6.9-5.7-12.6-12.6-12.6H745.8c-6.9,0-12.6,5.7-12.6,12.6   v259.3C733.2,334.3,738.8,340,745.8,340z"/>
	<path class="st7" d="M749,332.2h133.2c4.4,0,8-3.6,8-8V71c0-4.4-3.6-8-8-8H749c-4.4,0-8,3.6-8,8v253.2   C741,328.6,744.6,332.2,749,332.2z"/>
	<path class="st8" d="M763.7,298.5h103.7c5.3,0,9.6-4.3,9.6-9.6V85.2c0-5.3-4.3-9.6-9.6-9.6H763.7c-5.3,0-9.6,4.3-9.6,9.6v203.7   C754.1,294.2,758.4,298.5,763.7,298.5z"/>
	<circle class="st9" cx="815.6" cy="316.1" r="7.5"/>
	<g>
		<rect x="730" y="285.3" class="st1" width="11" height="14.3"/>
		<rect x="730" y="268.5" class="st1" width="11" height="10.1"/>
	</g>
	
	
	<g>
		
		
		
		
		
		
		
		
		
		
		
		
		
	</g>
	<path class="st11" d="M778.5,199h74c4.4,0,8-3.6,8-8l0,0c0-4.4-3.6-8-8-8h-74c-4.4,0-8,3.6-8,8l0,0   C770.5,195.4,774.1,199,778.5,199z"/>
	<path class="st11" d="M779.5,227h74c4.4,0,8-3.6,8-8l0,0c0-4.4-3.6-8-8-8h-74c-4.4,0-8,3.6-8,8l0,0   C771.5,223.4,775.1,227,779.5,227z"/>
	<path class="st12" d="M778.9,261h44.7c3.5,0,6.4-2.9,6.4-6.4v-3.2c0-3.5-2.9-6.4-6.4-6.4h-44.7c-3.5,0-6.4,2.9-6.4,6.4v3.2   C772.5,258.1,775.4,261,778.9,261z"/>
</g>
<path class="st13" d="M769-191.3l-6.6-2.4c-5.4-2-9.6-6.2-11.6-11.6l-2.4-6.6c-0.1-0.3-0.3-0.4-0.6-0.4s-0.5,0.2-0.6,0.4l-2.4,6.6  c-2,5.4-6.2,9.6-11.6,11.6l-6.6,2.4c-0.3,0.1-0.4,0.3-0.4,0.6c0,0.3,0.2,0.5,0.4,0.6l6.6,2.4c5.4,2,9.6,6.2,11.6,11.6l2.4,6.6  c0.1,0.2,0.3,0.4,0.6,0.4s0.5-0.2,0.6-0.4l2.4-6.6c2-5.4,6.2-9.6,11.6-11.6l6.6-2.4c0.3-0.1,0.4-0.3,0.4-0.6  C769.4-190.9,769.3-191.2,769-191.3L769-191.3z"/>
<path class="st13" d="M798.8-203.9l-4-1.5c-3.2-1.2-5.7-3.7-6.9-6.9l-1.5-4c-0.1-0.1-0.2-0.2-0.4-0.2s-0.3,0.1-0.4,0.2l-1.5,4  c-1.2,3.2-3.7,5.7-6.9,6.9l-4,1.5c-0.1,0.1-0.2,0.2-0.2,0.4s0.1,0.3,0.2,0.4l4,1.5c3.2,1.2,5.7,3.7,6.9,6.9l1.5,4  c0.1,0.1,0.2,0.2,0.4,0.2s0.3-0.1,0.4-0.2l1.5-4c1.2-3.2,3.7-5.7,6.9-6.9l4-1.5c0.1-0.1,0.2-0.2,0.2-0.4S798.9-203.9,798.8-203.9  L798.8-203.9z"/>
<path class="st14" d="M957-12.5l-3.6-1.3c-2.9-1.1-5.2-3.3-6.2-6.2l-1.3-3.6c0-0.1-0.2-0.2-0.3-0.2s-0.3,0.1-0.3,0.2L944-20  c-1.1,2.9-3.3,5.2-6.2,6.2l-3.6,1.3c-0.1,0-0.2,0.2-0.2,0.3s0.1,0.3,0.2,0.3l3.6,1.3c2.9,1.1,5.2,3.4,6.2,6.2l1.3,3.6  c0,0.1,0.2,0.2,0.3,0.2s0.3-0.1,0.3-0.2l1.3-3.6c1.1-2.9,3.4-5.2,6.2-6.2l3.6-1.3c0.1,0,0.2-0.2,0.2-0.3  C957.3-12.4,957.2-12.5,957-12.5L957-12.5z"/>
<circle class="st15" cx="398.8" cy="-225.8" r="9.2"/>
<circle class="st13" cx="546" cy="-187.8" r="5.6"/>
<circle class="st16" cx="454.8" cy="-184.9" r="8.7"/>
<circle class="st17" cx="933" cy="110.1" r="10.6"/>
<circle class="st18" cx="589.8" cy="422.7" r="12.6"/>
<path class="st19" d="M342.4,308.5c0-14.8,12.7-15.3,14.1-15.3h0.1c0.8,0,1.5-0.7,1.5-1.6c0-0.8-0.7-1.5-1.5-1.5l0,0l0,0  c-1.4,0-14.1-0.5-14.1-15.3c0-0.8-0.7-1.5-1.5-1.5s-1.5,0.7-1.5,1.5c0,14.8-12.7,15.3-14.1,15.3l0,0l0,0c-0.1,0-0.1,0-0.1,0  c-0.8,0.1-1.4,0.7-1.4,1.5s0.7,1.5,1.5,1.5l0,0c1.5,0,14.1,0.5,14.1,15.3c0,0.8,0.7,1.5,1.5,1.5C341.7,310,342.4,309.3,342.4,308.5z   M332.4,291.6c3.4-1.4,6.6-4.1,8.5-8.4c1.9,4.5,5.3,6.9,8.5,8.4c-3.4,1.4-6.6,4.1-8.5,8.4C339,295.4,335.6,293,332.4,291.6z"/>
<circle class="st13" cx="363.7" cy="374.7" r="5.6"/>
</svg>