<svg xmlns="http://www.w3.org/2000/svg" xmlns:xlink="http://www.w3.org/1999/xlink" width="54.915" height="46.066" viewBox="0 0 54.915 46.066"><defs><linearGradient id="a" x1="0.246" y1="0.198" x2="0.769" y2="0.821" gradientUnits="objectBoundingBox"><stop offset="0" stop-color="#ff637b"/><stop offset="1" stop-color="#f90217"/></linearGradient><linearGradient id="b" x1="0.5" y1="0.353" x2="0.5" y2="0.977" gradientUnits="objectBoundingBox"><stop offset="0" stop-color="#f90217" stop-opacity="0"/><stop offset="0.267" stop-color="#e7010f" stop-opacity="0.267"/><stop offset="0.723" stop-color="#ce0004" stop-opacity="0.722"/><stop offset="1" stop-color="#c50000"/></linearGradient><linearGradient id="c" x1="0.654" y1="0.871" x2="0.339" y2="0.448" xlink:href="#b"/><linearGradient id="d" x1="0.219" y1="0.452" x2="0.53" y2="0.716" gradientUnits="objectBoundingBox"><stop offset="0" stop-color="#ebeff0"/><stop offset="1" stop-color="#e3e5e4"/></linearGradient></defs><g transform="translate(0.001 -41.092)"><g transform="translate(-0.001 41.092)"><path d="M52.421,48.152a7.072,7.072,0,0,0-5.155-4.789,87.532,87.532,0,0,0-39.621,0,7.072,7.072,0,0,0-5.154,4.789,52.424,52.424,0,0,0,0,31.946,7.072,7.072,0,0,0,5.154,4.789,87.532,87.532,0,0,0,39.621,0A7.072,7.072,0,0,0,52.421,80.1,52.424,52.424,0,0,0,52.421,48.152Z" transform="translate(0.001 -41.092)" fill="url(#a)"/><path d="M2.508,303.736a54.316,54.316,0,0,0,2.223,10.725,7.072,7.072,0,0,0,5.154,4.789,87.531,87.531,0,0,0,39.621,0,7.072,7.072,0,0,0,5.154-4.789,54.315,54.315,0,0,0,2.223-10.725Z" transform="translate(-2.238 -275.456)" fill="url(#b)"/></g><path d="M213.615,177.25a7.072,7.072,0,0,0,5.154-4.789q.6-1.931,1.062-3.867L206.107,154.87a2.869,2.869,0,0,0-.854-.82l-14.642-8.968a2.637,2.637,0,0,0-4.191,2.222v18.367a2.682,2.682,0,0,0,1.029,2.368l11.338,11.338A88.715,88.715,0,0,0,213.615,177.25Z" transform="translate(-166.348 -92.363)" fill="url(#c)"/><path d="M203.468,152.573l-14.642-9.184a2.877,2.877,0,0,0-4.406,2.438v18.367a2.877,2.877,0,0,0,4.406,2.438l14.642-9.184A2.878,2.878,0,0,0,203.468,152.573Z" transform="translate(-164.562 -90.886)" fill="url(#d)"/></g></svg>